<?xml version="1.0" standalone="no"?><!DOCTYPE svg PUBLIC "-//W3C//DTD SVG 1.1//EN" "http://www.w3.org/Graphics/SVG/1.1/DTD/svg11.dtd"><svg t="1750235717809" class="icon" viewBox="0 0 1024 1024" version="1.1" xmlns="http://www.w3.org/2000/svg" p-id="5401" xmlns:xlink="http://www.w3.org/1999/xlink" width="200" height="200"><path d="M87.943814 1.505882a55.265866 55.265866 0 0 0-40.508224 17.46823A62.192923 62.192923 0 0 0 30.117948 60.235276v905.486793a56.169395 56.169395 0 0 0 17.317642 40.8094A56.771748 56.771748 0 0 0 87.943814 1023.999699h847.35975a55.265866 55.265866 0 0 0 40.508224-17.46823 57.825865 57.825865 0 0 0 17.317642-40.8094V331.29402L665.750702 1.505882z" fill="#DD2A17" p-id="5402"></path><path d="M993.882371 331.29402H723.877744a55.265866 55.265866 0 0 1-40.508223-17.46823 56.319983 56.319983 0 0 1-17.317642-40.959988V0z" fill="#FFD9CF" p-id="5403"></path><path d="M668.46129 790.286826c-46.531751 0-87.943504-80.564682-110.079968-132.818784A796.460942 796.460942 0 0 0 441.675474 617.411583c-34.785872 23.190581-93.063502 57.374101-138.089371 57.374101a53.609396 53.609396 0 0 1-55.416454-38.851753 45.176457 45.176457 0 0 1 5.119998-41.712929q17.769407-24.545875 73.185861-24.545875a472.395155 472.395155 0 0 1 109.327027 15.058819 660.93157 660.93157 0 0 0 79.0588-65.656452c-11.143526-52.254102-22.889405-136.583489 7.378821-175.284654A56.771748 56.771748 0 0 1 587.294255 328.583433a60.235276 60.235276 0 0 1 45.176457 41.712929c12.49882 50.74822-45.176457 119.416435-84.178799 159.623482a758.211542 758.211542 0 0 0 34.032932 105.411734c56.169395 25.298816 122.578787 62.644687 129.957608 103.755263a41.411753 41.411753 0 0 1-12.498819 38.851754 47.43528 47.43528 0 0 1-31.021168 12.649408zM599.642487 677.64686c28.009404 57.374101 54.663513 84.329387 68.668215 84.329386a15.058819 15.058819 0 0 0 9.637644-4.517645 11.595291 11.595291 0 0 0 4.367057-11.896467c-3.011764-15.058819-26.65411-39.604694-82.672916-67.915274z m-273.317567-76.799978c-36.141166 0-46.531751 8.884703-49.543515 12.649408a17.46823 17.46823 0 0 0 0 15.058819c2.258823 8.884703 8.131762 17.919995 27.256463 17.919995 23.642346 0 57.675277-13.402349 97.430559-37.345871a377.675183 377.675183 0 0 0-74.992919-9.035292z m146.221133-4.517646c23.642346 6.776469 48.037633 15.058819 70.927038 23.943523-8.131762-21.6847-15.058819-43.971752-20.630582-65.656452-16.263525 14.15529-33.27999 28.31058-50.296456 41.712929z m91.557621-240.941105a23.792934 23.792934 0 0 0-19.275289 8.884703c-15.058819 19.425877-17.016466 68.668215-5.119998 131.312903 45.176457-48.489398 69.421156-93.21409 63.548216-117.157613 0-3.764705-3.764705-14.15529-24.395287-20.178818a39.905871 39.905871 0 0 0-14.607054-3.614116z" fill="#FFFFFF" p-id="5404"></path></svg>